<svg width="36" height="24" viewBox="0 0 36 24" fill="none" xmlns="http://www.w3.org/2000/svg">
<g clip-path="url(#clip0_24_3497)">
<path d="M29.0857 12C29.0857 8.81744 27.8599 5.76516 25.678 3.51472C23.4961 1.26429 20.5368 4.17348e-07 17.4512 0C14.3655 -4.17347e-07 11.4062 1.26429 9.22434 3.51472C7.04243 5.76516 5.81665 8.81744 5.81665 12H9.45249C10.6573 12 11.5969 10.9587 12.0382 9.80234C12.3279 9.04317 12.7676 8.3455 13.3377 7.75736C14.4287 6.63215 15.9083 6.00001 17.4512 6.00001C18.994 6.00001 20.4737 6.63215 21.5646 7.75736C22.6556 8.88258 23.2684 10.4087 23.2684 12H29.0857Z" fill="url(#paint0_linear_24_3497)"/>
<path d="M22.3833 16.5922C22.968 15.1363 23.269 13.5759 23.269 12H29.0856C29.0856 18.6274 23.8766 24 17.4511 24C16.4448 24 15.4683 23.8682 14.5371 23.6206C15.064 23.4805 15.5819 23.3022 16.0868 23.0866C17.4983 22.4835 18.7809 21.5996 19.8613 20.4853C20.9417 19.371 21.7987 18.0481 22.3833 16.5922Z" fill="#FBCF8E"/>
<path d="M0 12C-2.18575e-07 13.5759 0.300935 15.1363 0.885623 16.5922C1.47031 18.0481 2.3273 19.371 3.40767 20.4853C4.48803 21.5996 5.77061 22.4835 7.18217 23.0866C8.59373 23.6896 10.1066 24 11.6345 24C13.1623 24 14.6753 23.6896 16.0868 23.0866C17.4984 22.4835 18.781 21.5996 19.8614 20.4853C20.9417 19.371 21.7987 18.0481 22.3834 16.5922C22.9681 15.1363 23.2691 13.5759 23.2691 12H19.6332C18.4284 12 17.4888 13.0413 17.0475 14.1976C17.035 14.2305 17.0221 14.2633 17.0089 14.2961C16.7166 15.0241 16.2881 15.6855 15.7479 16.2426C15.2078 16.7998 14.5664 17.2418 13.8607 17.5433C13.1549 17.8448 12.3985 18 11.6345 18C10.8706 18 10.1141 17.8448 9.40837 17.5433C8.70255 17.2418 8.0613 16.7998 7.52108 16.2426C6.9809 15.6855 6.55241 15.0241 6.26007 14.2961C5.96772 13.5681 5.81726 12.7879 5.81726 12H0Z" fill="url(#paint1_linear_24_3497)"/>
<path d="M0.0012207 12C0.0012207 5.37257 5.21015 0 11.6357 0C12.6417 0 13.6179 0.131696 14.5491 0.379295C12.5511 0.91015 10.7081 1.98446 9.22436 3.51473C7.04247 5.76515 5.81671 8.81744 5.81671 12H0.0012207Z" fill="#73E5E2"/>
</g>
<defs>
<linearGradient id="paint0_linear_24_3497" x1="29.0857" y1="6.00001" x2="5.81665" y2="6.00001" gradientUnits="userSpaceOnUse">
<stop stop-color="#73E5E2"/>
<stop offset="1" stop-color="#394F87"/>
</linearGradient>
<linearGradient id="paint1_linear_24_3497" x1="7.6284e-07" y1="18" x2="23.2691" y2="18" gradientUnits="userSpaceOnUse">
<stop stop-color="#FBDC8E"/>
<stop offset="1" stop-color="#FB958E"/>
</linearGradient>
<clipPath id="clip0_24_3497">
<rect width="120" height="24" fill="white"/>
</clipPath>
</defs>
</svg>
