<svg width="120" height="24" viewBox="0 0 120 24" fill="none" xmlns="http://www.w3.org/2000/svg">
<path d="M36.0547 18.7497V6.14994H38.3582V16.5897H43.9427V18.7497H36.0547Z" fill="#3A5088"/>
<path d="M48.9161 19.0017C48.0552 19.0017 47.2815 18.8217 46.5951 18.4617C45.9086 18.1017 45.3677 17.5797 44.9721 16.8958C44.5766 16.2118 44.3788 15.3898 44.3788 14.4298V14.1418C44.3788 13.1818 44.5766 12.3598 44.9721 11.6758C45.3677 10.9919 45.9086 10.4699 46.5951 10.1098C47.2815 9.74991 48.0552 9.5699 48.9161 9.5699C49.7771 9.5699 50.5508 9.74991 51.2372 10.1098C51.9236 10.4699 52.4645 10.9919 52.8602 11.6758C53.2557 12.3598 53.4535 13.1818 53.4535 14.1418V14.4298C53.4535 15.3898 53.2557 16.2118 52.8602 16.8958C52.4645 17.5797 51.9236 18.1017 51.2372 18.4617C50.5508 18.8217 49.7771 19.0017 48.9161 19.0017ZM48.9161 16.9857C49.5909 16.9857 50.1494 16.7637 50.5915 16.3198C51.0335 15.8638 51.2546 15.2157 51.2546 14.3758V14.1958C51.2546 13.3558 51.0335 12.7138 50.5915 12.2698C50.161 11.8138 49.6025 11.5858 48.9161 11.5858C48.2414 11.5858 47.6829 11.8138 47.2408 12.2698C46.7987 12.7138 46.5776 13.3558 46.5776 14.1958V14.3758C46.5776 15.2157 46.7987 15.8638 47.2408 16.3198C47.6829 16.7637 48.2414 16.9857 48.9161 16.9857Z" fill="#3A5088"/>
<path d="M54.2791 14.3218V14.0338C54.2791 13.0978 54.4594 12.2998 54.82 11.6398C55.1807 10.9679 55.6577 10.4579 56.251 10.1098C56.856 9.74991 57.5134 9.5699 58.2231 9.5699C59.0142 9.5699 59.6133 9.71386 60.0205 10.0019C60.4278 10.2899 60.7244 10.5898 60.9105 10.9018H61.2247V9.82185H63.3887V20.3336C63.3887 20.9457 63.2142 21.4316 62.8651 21.7916C62.5161 22.1636 62.0508 22.3496 61.469 22.3496H55.6752V20.3697H60.7011C61.0269 20.3697 61.1898 20.1897 61.1898 19.8297V17.5077H60.8757C60.7594 17.6997 60.5964 17.8977 60.387 18.1017C60.1776 18.2937 59.8984 18.4557 59.5494 18.5877C59.2003 18.7197 58.7583 18.7857 58.2231 18.7857C57.5134 18.7857 56.856 18.6117 56.251 18.2637C55.6577 17.9037 55.1807 17.3937 54.82 16.7337C54.4594 16.0618 54.2791 15.2577 54.2791 14.3218ZM58.8513 16.8057C59.5261 16.8057 60.0904 16.5837 60.5441 16.1398C60.9979 15.6957 61.2247 15.0718 61.2247 14.2678V14.0878C61.2247 13.2718 60.9979 12.6478 60.5441 12.2158C60.102 11.7718 59.5377 11.5498 58.8513 11.5498C58.1765 11.5498 57.6123 11.7718 57.1585 12.2158C56.7048 12.6478 56.4779 13.2718 56.4779 14.0878V14.2678C56.4779 15.0718 56.7048 15.6957 57.1585 16.1398C57.6123 16.5837 58.1765 16.8057 58.8513 16.8057Z" fill="#3A5088"/>
<path d="M69.1597 19.0017C68.2988 19.0017 67.5251 18.8217 66.8386 18.4617C66.1522 18.1017 65.6113 17.5797 65.2157 16.8958C64.8202 16.2118 64.6223 15.3898 64.6223 14.4298V14.1418C64.6223 13.1818 64.8202 12.3598 65.2157 11.6758C65.6113 10.9919 66.1522 10.4699 66.8386 10.1098C67.5251 9.74991 68.2988 9.5699 69.1597 9.5699C70.0207 9.5699 70.7943 9.74991 71.4808 10.1098C72.1672 10.4699 72.7081 10.9919 73.1038 11.6758C73.4993 12.3598 73.6971 13.1818 73.6971 14.1418V14.4298C73.6971 15.3898 73.4993 16.2118 73.1038 16.8958C72.7081 17.5797 72.1672 18.1017 71.4808 18.4617C70.7943 18.8217 70.0207 19.0017 69.1597 19.0017ZM69.1597 16.9857C69.8345 16.9857 70.393 16.7637 70.835 16.3198C71.2771 15.8638 71.4982 15.2157 71.4982 14.3758V14.1958C71.4982 13.3558 71.2771 12.7138 70.835 12.2698C70.4046 11.8138 69.8461 11.5858 69.1597 11.5858C68.4849 11.5858 67.9265 11.8138 67.4844 12.2698C67.0423 12.7138 66.8212 13.3558 66.8212 14.1958V14.3758C66.8212 15.2157 67.0423 15.8638 67.4844 16.3198C67.9265 16.7637 68.4849 16.9857 69.1597 16.9857Z" fill="#3A5088"/>
<path d="M74.9414 18.7497V9.82184H77.1405V18.7497H74.9414ZM76.041 8.77792C75.645 8.77792 75.3082 8.64587 75.0285 8.38185C74.7611 8.11791 74.6273 7.76989 74.6273 7.33791C74.6273 6.90592 74.7611 6.55793 75.0285 6.29393C75.3082 6.02994 75.645 5.89794 76.041 5.89794C76.4482 5.89794 76.7857 6.02994 77.0527 6.29393C77.3205 6.55793 77.4548 6.90592 77.4548 7.33791C77.4548 7.76989 77.3205 8.11791 77.0527 8.38185C76.7857 8.64587 76.4482 8.77792 76.041 8.77792Z" fill="#3A5088"/>
<path d="M78.792 22.3496V9.82185H80.9557V10.9018H81.27C81.4672 10.5539 81.7755 10.2479 82.1947 9.98383C82.6132 9.7079 83.2125 9.5699 83.9925 9.5699C84.69 9.5699 85.3357 9.74991 85.929 10.1098C86.523 10.4579 87 10.9738 87.36 11.6578C87.7207 12.3418 87.9015 13.1698 87.9015 14.1418V14.4298C87.9015 15.4018 87.7207 16.2297 87.36 16.9137C87 17.5977 86.523 18.1197 85.929 18.4797C85.3357 18.8277 84.69 19.0017 83.9925 19.0017C83.469 19.0017 83.0265 18.9357 82.6657 18.8037C82.317 18.6837 82.032 18.5277 81.8107 18.3357C81.6015 18.1317 81.4327 17.9277 81.3045 17.7237H80.9902V22.3496H78.792ZM83.3287 17.0217C84.0157 17.0217 84.5797 16.7998 85.0215 16.3557C85.4752 15.8997 85.7025 15.2398 85.7025 14.3758V14.1958C85.7025 13.3318 85.4752 12.6778 85.0215 12.2338C84.5677 11.7778 84.0037 11.5498 83.3287 11.5498C82.6545 11.5498 82.0897 11.7778 81.636 12.2338C81.1822 12.6778 80.9557 13.3318 80.9557 14.1958V14.3758C80.9557 15.2398 81.1822 15.8997 81.636 16.3557C82.0897 16.7998 82.6545 17.0217 83.3287 17.0217Z" fill="#3A5088"/>
<path d="M92.73 19.0017C91.6012 19.0017 90.6765 18.7497 89.955 18.2457C89.2342 17.7417 88.7977 17.0217 88.6462 16.0858L90.6705 15.5457C90.7522 15.9658 90.8857 16.2957 91.0725 16.5357C91.2697 16.7757 91.5082 16.9498 91.788 17.0577C92.0782 17.1537 92.3925 17.2017 92.73 17.2017C93.2422 17.2017 93.6202 17.1117 93.864 16.9317C94.1085 16.7397 94.2307 16.5057 94.2307 16.2297C94.2307 15.9537 94.1145 15.7438 93.882 15.5997C93.6487 15.4438 93.2767 15.3178 92.7652 15.2218L92.2762 15.1317C91.671 15.0118 91.119 14.8498 90.6187 14.6458C90.1177 14.4298 89.7165 14.1358 89.4142 13.7638C89.112 13.3918 88.9605 12.9118 88.9605 12.3239C88.9605 11.4358 89.2747 10.7579 89.9032 10.2899C90.531 9.80986 91.3575 9.5699 92.3812 9.5699C93.3465 9.5699 94.1497 9.79184 94.7895 10.2359C95.4292 10.6799 95.8477 11.2618 96.0457 11.9819L94.0042 12.6298C93.9112 12.1739 93.7192 11.8498 93.4282 11.6578C93.1485 11.4658 92.7997 11.3698 92.3812 11.3698C91.962 11.3698 91.6425 11.4479 91.4212 11.6038C91.2 11.7479 91.0897 11.9519 91.0897 12.2158C91.0897 12.5038 91.206 12.7198 91.4385 12.8638C91.671 12.9958 91.9852 13.0978 92.3812 13.1698L92.8695 13.2598C93.5212 13.3798 94.1085 13.5418 94.632 13.7458C95.1675 13.9378 95.586 14.2198 95.889 14.5918C96.2025 14.9518 96.36 15.4438 96.36 16.0677C96.36 17.0038 96.0285 17.7297 95.3655 18.2457C94.7137 18.7497 93.8355 19.0017 92.73 19.0017Z" fill="#3A5088"/>
<path d="M100.8 18.8937C100.125 18.8937 99.5318 18.7377 99.0195 18.4257C98.5193 18.1017 98.13 17.6577 97.8503 17.0937C97.5713 16.5297 97.4318 15.8818 97.4318 15.1497V9.82184H99.6308V14.9697C99.6308 15.6417 99.7875 16.1457 100.102 16.4817C100.427 16.8177 100.887 16.9857 101.48 16.9857C102.155 16.9857 102.679 16.7578 103.051 16.3017C103.424 15.8337 103.61 15.1857 103.61 14.3578V9.82184H105.809V18.7497H103.644V17.5797H103.331C103.191 17.8797 102.929 18.1737 102.545 18.4617C102.161 18.7497 101.579 18.8937 100.8 18.8937Z" fill="#3A5088"/>
<path d="M107.47 18.7497V9.82182H109.633V10.7938H109.948C110.099 10.4938 110.35 10.2358 110.698 10.0199C111.047 9.79181 111.507 9.67786 112.077 9.67786C112.693 9.67786 113.188 9.80388 113.56 10.0558C113.932 10.2959 114.217 10.6138 114.415 11.0099H114.73C114.928 10.6259 115.207 10.3079 115.567 10.0558C115.928 9.80388 116.44 9.67786 117.103 9.67786C117.638 9.67786 118.121 9.79784 118.552 10.0379C118.993 10.2658 119.343 10.6198 119.599 11.0998C119.866 11.5678 120 12.1618 120 12.8818V18.7497H117.801V13.0438C117.801 12.5518 117.679 12.1858 117.435 11.9458C117.19 11.6938 116.847 11.5678 116.405 11.5678C115.905 11.5678 115.515 11.7358 115.236 12.0718C114.968 12.3958 114.835 12.8638 114.835 13.4757V18.7497H112.636V13.0438C112.636 12.5518 112.513 12.1858 112.269 11.9458C112.024 11.6938 111.682 11.5678 111.239 11.5678C110.739 11.5678 110.349 11.7358 110.07 12.0718C109.802 12.3958 109.669 12.8638 109.669 13.4757V18.7497H107.47Z" fill="#3A5088"/>
<path d="M29.0857 12C29.0857 8.81744 27.8599 5.76516 25.678 3.51472C23.4961 1.26429 20.5368 4.17348e-07 17.4512 0C14.3655 -4.17347e-07 11.4062 1.26429 9.22434 3.51472C7.04243 5.76516 5.81665 8.81744 5.81665 12H9.45249C10.6573 12 11.5969 10.9587 12.0382 9.80234C12.3279 9.04317 12.7676 8.3455 13.3377 7.75736C14.4287 6.63215 15.9083 6.00001 17.4512 6.00001C18.994 6.00001 20.4737 6.63215 21.5646 7.75736C22.6556 8.88258 23.2684 10.4087 23.2684 12H29.0857Z" fill="url(#paint0_linear_680_1912)"/>
<path d="M22.3833 16.5922C22.968 15.1363 23.269 13.5759 23.269 12H29.0856C29.0856 18.6274 23.8766 24 17.4511 24C16.4448 24 15.4683 23.8682 14.5371 23.6206C15.064 23.4805 15.5819 23.3022 16.0868 23.0866C17.4983 22.4835 18.7809 21.5996 19.8613 20.4853C20.9417 19.371 21.7987 18.0481 22.3833 16.5922Z" fill="#FBCF8E"/>
<path d="M0 12C-2.18575e-07 13.5759 0.300935 15.1363 0.885623 16.5922C1.47031 18.0481 2.3273 19.371 3.40767 20.4853C4.48803 21.5996 5.77061 22.4835 7.18217 23.0866C8.59373 23.6896 10.1066 24 11.6345 24C13.1623 24 14.6753 23.6896 16.0868 23.0866C17.4984 22.4835 18.781 21.5996 19.8614 20.4853C20.9417 19.371 21.7987 18.0481 22.3834 16.5922C22.9681 15.1363 23.2691 13.5759 23.2691 12H19.6332C18.4284 12 17.4888 13.0413 17.0475 14.1976C17.035 14.2305 17.0221 14.2633 17.0089 14.2961C16.7166 15.0241 16.2881 15.6855 15.7479 16.2426C15.2078 16.7998 14.5664 17.2418 13.8607 17.5433C13.1549 17.8448 12.3985 18 11.6345 18C10.8706 18 10.1141 17.8448 9.40837 17.5433C8.70255 17.2418 8.0613 16.7998 7.52108 16.2426C6.9809 15.6855 6.55241 15.0241 6.26007 14.2961C5.96772 13.5681 5.81726 12.7879 5.81726 12H0Z" fill="url(#paint1_linear_680_1912)"/>
<path d="M0.0012207 12C0.0012207 5.37257 5.21015 0 11.6357 0C12.6417 0 13.6179 0.131696 14.5491 0.379295C12.5511 0.91015 10.7081 1.98446 9.22436 3.51473C7.04247 5.76515 5.81671 8.81744 5.81671 12H0.0012207Z" fill="#73E5E2"/>
<defs>
<linearGradient id="paint0_linear_680_1912" x1="29.0857" y1="6.00001" x2="5.81665" y2="6.00001" gradientUnits="userSpaceOnUse">
<stop stop-color="#73E5E2"/>
<stop offset="1" stop-color="#394F87"/>
</linearGradient>
<linearGradient id="paint1_linear_680_1912" x1="7.6284e-07" y1="18" x2="23.2691" y2="18" gradientUnits="userSpaceOnUse">
<stop stop-color="#FBDC8E"/>
<stop offset="1" stop-color="#FB958E"/>
</linearGradient>
</defs>
</svg>
