<svg width="243" height="110" viewBox="0 0 243 110" fill="none" xmlns="http://www.w3.org/2000/svg">
<g clip-path="url(#clip0_24_4851)">
<path d="M111.965 49.6858V25.9955C111.965 18.3121 115.315 15.3668 120.727 15.3668C126.138 15.3668 129.488 18.3121 129.488 25.9955V37.6485L139.023 31.1177L146.496 35.2155V27.148C146.496 9.98847 137.348 0.128174 120.727 0.128174C104.106 0.128174 94.958 9.98847 94.958 27.148V61.4669L111.965 49.6858Z" fill="#D9E2F3"/>
<path d="M178.32 52.1189L186.309 33.4228V56.4728L194.555 60.9548L202.929 50.8384V1.28076H184.376L165.693 45.332L178.32 52.1189Z" fill="#D9E2F3"/>
<path d="M50.8934 43.9234L56.3049 51.2226L63.7778 33.4228V61.8512L73.8277 75.9373L80.5275 71.3273V1.28076H61.974L39.9417 53.0153L50.8934 43.9234Z" fill="#D9E2F3"/>
<path d="M139.667 42.2587L129.617 49.1737V83.8768C129.617 91.5602 126.267 94.5055 120.856 94.5055C115.444 94.5055 112.094 91.5602 112.094 83.8768V61.2109L95.0869 72.9921V82.8524C95.0869 100.012 104.235 109.872 120.856 109.872C137.477 109.872 146.625 100.012 146.625 82.8524V45.8442L139.667 42.1306V42.2587Z" fill="#225FAD"/>
<path d="M71.5084 89.255L60.5567 73.8883H46.6415L51.7953 61.723L49.0896 57.8813L31.6956 72.2236L31.0514 73.8883V89.255H63.7778V108.72H80.5275V89.255H88.5159V77.4739L71.5084 89.255Z" fill="#225FAD"/>
<path d="M202.929 65.8209L196.874 73.1201L186.308 67.3576V73.8885H169.172L174.584 61.0829L161.828 54.2959L153.453 73.8885V89.2552H186.308V108.72H202.929V89.2552H211.047V73.8885H202.929V65.8209Z" fill="#225FAD"/>
<path d="M3.34995 92.9684L0 88.9987L50.5069 47.1244L73.3123 79.0104L139.152 33.6786L195.07 63.7717L239.135 11.2688L243 14.5983L196.358 70.3026L139.538 39.6972L72.0239 86.0534L49.605 54.5517L3.34995 92.9684Z" fill="#225FAD"/>
</g>
<defs>
<clipPath id="clip0_24_4851">
<rect width="243" height="110" fill="white"/>
</clipPath>
</defs>
</svg>
